<?xml version="1.0" encoding="UTF-8"?>
<svg id="Layer_1" xmlns="http://www.w3.org/2000/svg" version="1.1" viewBox="0 0 326.5 150">
  <!-- Generator: Adobe Illustrator 29.6.0, SVG Export Plug-In . SVG Version: 2.1.1 Build 207)  -->
  <defs>
    <style>
      .st0 {
        fill: #fff;
      }

      .st1 {
        fill: #c4161c;
      }

      .st2 {
        fill: #1f1f1f;
      }
    </style>
  </defs>
  <g>
    <polygon class="st1" points="0 0 0 150 150 150 150 0 0 0 0 0"/>
    <g>
      <path class="st0" d="M27,63.2l-4.1,2.4c-1.6-2.3-3.2-3.6-5.7-3.6s-4,1.4-4,3.3,1.1,2.9,3.6,3.8l2,.8c6.3,2.2,9,5,9,9.2s-5.4,8.7-10.4,8.7-9.4-3.1-10.7-7.2l4.3-2.2c1.1,2.4,3,4.5,6.5,4.5s4.7-1.3,4.7-3.6-1.5-3.5-4.8-4.7l-1.9-.7c-4.4-1.6-7.7-3.8-7.7-8.7s4.3-8,9.5-8,8.3,3.2,9.8,6.1Z"/>
      <path class="st0" d="M61.5,72.4c0,8.9-7.2,15.2-15.2,15.2s-15.2-6.2-15.2-15.2,7.2-15.2,15.2-15.2,15.2,6.2,15.2,15.2ZM55.7,72.4c0-5.8-4.3-10-9.5-10s-9.5,4.2-9.5,10,4.3,10,9.5,10,9.5-4.2,9.5-10Z"/>
      <path class="st0" d="M71.6,62.6v7.3h10.4v4.7h-10.4v12.5h-5.7v-29.5h18.4v5h-12.7Z"/>
      <path class="st0" d="M106.5,81.4h-14.6l-2.4,5.7h-5.8l13.1-29.5h4.9l13.1,29.5h-5.9l-2.4-5.7ZM104.5,76.9l-5.3-12.5-5.3,12.5h10.7Z"/>
      <path class="st0" d="M143.1,72.2c0,8.3-6.5,14.9-14.9,14.9h-10.1v-29.5h10.1c8.4,0,14.9,6.5,14.9,14.6ZM137.5,72.2c0-5.1-3.4-9.4-9.3-9.4h-4.5v19h4.5c6,0,9.3-4.3,9.3-9.6Z"/>
    </g>
  </g>
  <g>
    <path class="st2" d="M189.7,61.6h-10.1l-2.1,4.7h-1.7l8.2-18.4h1.3l8.2,18.4h-1.7l-2.1-4.7ZM189.1,60.2l-4.4-10-4.4,10h8.9Z"/>
    <path class="st2" d="M209.2,53.7c0,3.3-2.3,5.8-6.4,5.8h-4.2v6.8h-1.6v-18.4h5.8c4.1,0,6.4,2.6,6.4,5.8ZM207.6,53.7c0-2.7-1.9-4.3-4.8-4.3h-4.2v8.6h4.2c2.9,0,4.8-1.6,4.8-4.3Z"/>
    <path class="st2" d="M225.3,53.7c0,3.3-2.3,5.8-6.4,5.8h-4.2v6.8h-1.6v-18.4h5.8c4.1,0,6.4,2.6,6.4,5.8ZM223.7,53.7c0-2.7-1.9-4.3-4.8-4.3h-4.2v8.6h4.2c2.9,0,4.8-1.6,4.8-4.3Z"/>
    <path class="st2" d="M240.5,66.3l-4.9-6.8c-.2,0-.4,0-.6,0h-4.2v6.8h-1.6v-18.4h5.8c4.1,0,6.4,2.6,6.4,5.8s-1.5,4.8-4.2,5.5l5.2,7h-1.8ZM230.7,58h4.2c2.9,0,4.8-1.6,4.8-4.3s-1.9-4.3-4.8-4.3h-4.2v8.6Z"/>
    <path class="st2" d="M256.7,64.7v1.6h-10.7v-18.4h10.5v1.6h-8.8v6.9h6.9v1.5h-6.9v6.9h9.1Z"/>
    <path class="st2" d="M275.4,47.9v18.4h-1.2l-11.8-15.4v15.4h-1.6v-18.4h1.2l11.8,15.4v-15.4h1.6Z"/>
    <path class="st2" d="M294.3,57.1c0,5.1-3.9,9.2-9.3,9.2h-5.1v-18.4h5.1c5.4,0,9.3,4.1,9.3,9.2ZM292.7,57.1c0-4.3-3-7.7-7.7-7.7h-3.4v15.3h3.4c4.7,0,7.7-3.4,7.7-7.6Z"/>
    <path class="st2" d="M309.6,66.3l-4.9-6.8c-.2,0-.4,0-.6,0h-4.2v6.8h-1.6v-18.4h5.8c4.1,0,6.4,2.6,6.4,5.8s-1.5,4.8-4.2,5.5l5.2,7h-1.8ZM299.9,58h4.2c2.9,0,4.8-1.6,4.8-4.3s-1.9-4.3-4.8-4.3h-4.2v8.6Z"/>
    <path class="st2" d="M325.8,64.7v1.6h-10.7v-18.4h10.5v1.6h-8.8v6.9h6.9v1.5h-6.9v6.9h9.1Z"/>
    <path class="st2" d="M188,89.4v3.2h-11.5v-18.4h11.2v3.2h-7.8v4.4h5.9v3.1h-5.9v4.5h8Z"/>
    <path class="st2" d="M204.6,77.3h-4.7v15.2h-3.4v-15.2h-4.7v-3.2h12.9v3.2Z"/>
    <path class="st2" d="M228.8,92.6l-4.1-6.3h-3.1v6.3h-3.4v-18.4h6.3c4.1,0,6.7,2.5,6.7,6.2s-1.3,4.4-3.4,5.4l4.6,6.9h-3.7ZM221.7,83.3h2.7c2.1,0,3.5-.9,3.5-3s-1.4-3-3.5-3h-2.7v6Z"/>
    <path class="st2" d="M247.9,89.4v3.2h-11.5v-18.4h11.2v3.2h-7.8v4.4h5.9v3.1h-5.9v4.5h8ZM243.5,72.8h-2.6l1.8-3.4h4.1l-3.3,3.4Z"/>
    <path class="st2" d="M266.2,74.2v11.7c0,4.5-3.2,7.1-7,7.1s-7-2.6-7-7.1v-11.7h3.4v11.7c0,2.9,1.8,3.8,3.6,3.8s3.6-.9,3.6-3.8v-11.7h3.4Z"/>
    <path class="st2" d="M283,77.7l-2.6,1.5c-1-1.4-2-2.3-3.6-2.3s-2.5.9-2.5,2.1.7,1.8,2.3,2.4l1.3.5c3.9,1.4,5.6,3.1,5.6,5.7s-3.4,5.4-6.5,5.4-5.9-1.9-6.7-4.5l2.7-1.4c.7,1.5,1.9,2.8,4.1,2.8s2.9-.8,2.9-2.3-.9-2.2-3-2.9l-1.2-.4c-2.7-1-4.8-2.4-4.8-5.4s2.7-5,5.9-5,5.2,2,6.1,3.8Z"/>
    <path class="st2" d="M299.6,77.7l-2.6,1.5c-1-1.4-2-2.3-3.6-2.3s-2.5.9-2.5,2.1.7,1.8,2.3,2.4l1.3.5c3.9,1.4,5.6,3.1,5.6,5.7s-3.4,5.4-6.5,5.4-5.9-1.9-6.7-4.5l2.7-1.4c.7,1.5,1.9,2.8,4.1,2.8s2.9-.8,2.9-2.3-.9-2.2-3-2.9l-1.2-.4c-2.7-1-4.8-2.4-4.8-5.4s2.7-5,5.9-5,5.2,2,6.1,3.8Z"/>
    <path class="st2" d="M307.6,92.6h-3.4v-18.4h3.4v18.4Z"/>
    <path class="st2" d="M322.9,92.6l-4.1-6.3h-3.1v6.3h-3.4v-18.4h6.3c4.1,0,6.7,2.5,6.7,6.2s-1.3,4.4-3.4,5.4l4.6,6.9h-3.7ZM315.7,83.3h2.7c2.1,0,3.5-.9,3.5-3s-1.4-3-3.5-3h-2.7v6Z"/>
  </g>
</svg>